<svg id="Layer_1" data-name="Layer 1" xmlns="http://www.w3.org/2000/svg" viewBox="0 0 435.05 458.12"><path d="M753.23,274.25q-1-5.33-2.12-10.5h0C741.89,220,729.47,184.18,714.77,155l-38.95-13.4,29.36-4.2c-11.87-20.14-24.95-36.63-38.85-50l-71.54,8.18,54-23.15C549.55-2.29,419.44,57.67,384,76.52c-4.87,2.57-7.94,4.39-8.93,5h0l-.32.2,20.13,10.45h0l27.9,14.5A104,104,0,0,0,390,78a104,104,0,0,1,32.76,28.65L752.31,277.82Z" transform="translate(-319.51 -35.88)" style="fill:#fce8e6"/><polygon points="45.27 77.1 75.48 56.18 35.98 0.4 45.27 77.1" style="fill:#3f3d56"/><path d="M453.62,193.12c3.48,7.73,23.32,54,21.15,100.35a195,195,0,0,0,6.5,61.72c.57,2.1,1.2,4.21,1.82,6.34,7.56,25.39,19.36,58.05,36.74,89.64A303,303,0,0,0,548.08,494a305.17,305.17,0,0,0,40.58-16.49A311.49,311.49,0,0,0,752.31,277.82l.92-3.57q.69-2.75,1.33-5.52c-1-1.53-2.2-3.2-3.45-5h0C709.88,204.8,558.79,12.23,384.76,77.6h0c-3.23,1.21-6.45,2.51-9.69,3.89h0q-4.41,1.91-8.84,4c-1.5.7-3,1.44-4.49,2.19-1.3.66-2.59,1.32-3.89,2,0,0-7.41,1.86-15.71,8.85-16.3,13.77-36.06,47.41-9.88,126,0,0,23.25,65.07,11.62,95.29s60.45,65.06,81.34,0S453.1,192,453.1,192l.52,1.13c-4-44.68-23.1-92.93-63.62-115.12" transform="translate(-319.51 -35.88)" style="fill:#3f3d56"/><path d="M390,78c40.52,22.19,59.63,70.44,63.62,115.12" transform="translate(-319.51 -35.88)" style="fill:#3f3d56"/><polygon points="25.01 82.62 15.72 5.93 55.23 61.7 25.01 82.62" style="fill:#3f3d56"/><path d="M451.5,201.05c-1.3-16.43,1-33.13,1.57-49.58,1.06-28.92.84-57.86-.23-86.78A205.23,205.23,0,0,0,385.08,78h0c-3.23,1.21-6.45,2.51-9.69,3.9h0q-4.41,1.89-8.84,4c-1.5.71-3,1.45-4.49,2.2-1.3.65-2.59,1.32-3.89,2,0,0-7.41,1.85-15.71,8.85-16.3,13.77-36.06,47.4-9.88,125.94,0,0,23.25,65.07,11.62,95.29s60.45,65.06,81.34,0c15.37-47.8,23.22-94.34,26.3-115.68C451.7,203.38,451.59,202.21,451.5,201.05Z" transform="translate(-319.51 -35.88)" style="fill:#3f3d56"/></svg>