<svg id="Layer_1" data-name="Layer 1" xmlns="http://www.w3.org/2000/svg" viewBox="0 0 696.42 458.12"><path d="M753.23,274.25q-1-5.33-2.12-10.5h0C741.89,220,729.47,184.18,714.77,155l-38.95-13.4,29.36-4.2c-11.87-20.14-24.95-36.63-38.85-50l-71.54,8.18,54-23.15C549.55-2.29,419.44,57.67,384,76.52c-4.87,2.57-7.94,4.39-8.93,5h0l-.32.2,20.13,10.45h0l27.9,14.5A104,104,0,0,0,390,78a104,104,0,0,1,32.76,28.65L752.31,277.82Z" transform="translate(-187.32 -35.88)" style="fill:#fce8e6"/><polygon points="177.46 77.1 207.67 56.18 168.16 0.4 177.46 77.1" style="fill:#3f3d56"/><path d="M453.62,193.12c3.48,7.73,23.32,54,21.15,100.35a195,195,0,0,0,6.5,61.72c.57,2.1,1.2,4.21,1.82,6.34,7.56,25.39,19.36,58.05,36.74,89.64A303,303,0,0,0,548.08,494a305.17,305.17,0,0,0,40.58-16.49A311.49,311.49,0,0,0,752.31,277.82l.92-3.57q.69-2.75,1.33-5.52c-1-1.53-2.2-3.2-3.45-5h0C709.88,204.8,558.79,12.23,384.76,77.6h0c-3.23,1.21-6.45,2.51-9.69,3.89h0q-4.41,1.91-8.84,4c-1.5.7-3,1.44-4.49,2.19-1.3.66-2.59,1.32-3.89,2,0,0-7.41,1.86-15.71,8.85-16.3,13.77-36.06,47.41-9.88,126,0,0,23.25,65.07,11.62,95.29s60.45,65.06,81.34,0S453.1,192,453.1,192l.52,1.13c-4-44.68-23.1-92.93-63.62-115.12" transform="translate(-187.32 -35.88)" style="fill:#3f3d56"/><path d="M390,78c40.52,22.19,59.63,70.44,63.62,115.12" transform="translate(-187.32 -35.88)" style="fill:#3f3d56"/><polygon points="157.2 82.62 147.91 5.93 187.42 61.7 157.2 82.62" style="fill:#3f3d56"/><path d="M281,377.1H215.12l-15,40.76H187.32l54.9-145.08h11.66l54.9,145.08H296ZM218.9,366.74h58.2l-29.1-79Z" transform="translate(-187.32 -35.88)" style="fill:#1d1d1d"/><path d="M414,365.05q0,25.2-11.16,40T373,419.85q-22.12,0-33.88-15.54v55H327.22V310h11.06l.6,15.25q11.65-17.24,33.78-17.24,19.32,0,30.34,14.65t11,40.65Zm-12-2.09q0-20.64-8.47-32.59t-23.61-12q-11,0-18.84,5.29A33.23,33.23,0,0,0,339.08,339v51.72a31.71,31.71,0,0,0,12.25,14.15,35.4,35.4,0,0,0,18.84,4.88q15,0,23.46-12T402.05,363Z" transform="translate(-187.32 -35.88)" style="fill:#1d1d1d"/><path d="M527.11,365.05q0,25.2-11.16,40t-29.9,14.8q-22.11,0-33.88-15.54v55H440.32V310h11.06l.59,15.25q11.67-17.24,33.78-17.24,19.33,0,30.35,14.65t11,40.65Zm-12-2.09q0-20.64-8.47-32.59t-23.62-12q-11,0-18.83,5.29A33.19,33.19,0,0,0,452.17,339v51.72a31.73,31.73,0,0,0,12.26,14.15,35.37,35.37,0,0,0,18.83,4.88q15,0,23.47-12T515.15,363Z" transform="translate(-187.32 -35.88)" style="fill:#1d1d1d"/><path d="M638.41,382.19q0-12.06-8.47-19.09t-31-13.35q-22.51-6.33-32.88-13.8-14.75-10.56-14.75-27.7,0-16.63,13.7-27.05t35-10.42a58.05,58.05,0,0,1,25.85,5.58,42.3,42.3,0,0,1,17.69,15.55,40.78,40.78,0,0,1,6.28,22.22H637.51q0-14.89-10.16-23.94t-27.3-9q-16.65,0-26.51,7.43T563.68,308a22,22,0,0,0,8.86,18.07q8.88,7,28.4,12.32t29.6,11.07q10.07,5.73,15.14,13.7A34.31,34.31,0,0,1,650.77,382q0,17.13-13.71,27.5t-36.12,10.36a70.88,70.88,0,0,1-28.15-5.48Q560,408.9,553.36,399a39.61,39.61,0,0,1-6.62-22.62H559q0,15.34,11.46,24.21t30.49,8.87q16.95,0,27.21-7.47T638.41,382.19Z" transform="translate(-187.32 -35.88)" style="fill:#1d1d1d"/><path d="M743.73,404.21Q733,419.86,709.36,419.85q-17.25,0-26.21-10T674,380.19V310h11.86V378.7q0,30.8,24.91,30.79,25.9,0,32.79-21.42V310h12V417.86H743.93Z" transform="translate(-187.32 -35.88)" style="fill:#1d1d1d"/><path d="M871.38,382.19q0-12.06-8.47-19.09t-31-13.35Q809.41,343.42,799,336q-14.74-10.56-14.75-27.7,0-16.63,13.7-27.05t35-10.42a58.05,58.05,0,0,1,25.85,5.58,42.3,42.3,0,0,1,17.69,15.55,40.78,40.78,0,0,1,6.28,22.22H870.48q0-14.89-10.16-23.94t-27.3-9q-16.65,0-26.51,7.43T796.65,308a22,22,0,0,0,8.86,18.07q8.88,7,28.4,12.32t29.6,11.07q10.07,5.73,15.14,13.7A34.31,34.31,0,0,1,883.74,382q0,17.13-13.71,27.5t-36.12,10.36a70.88,70.88,0,0,1-28.15-5.48Q793,408.9,786.33,399a39.61,39.61,0,0,1-6.62-22.62H792q0,15.34,11.46,24.21t30.49,8.87q17,0,27.21-7.47T871.38,382.19Z" transform="translate(-187.32 -35.88)" style="fill:#1d1d1d"/><path d="M451.5,201.05c-1.3-16.43,1-33.13,1.57-49.58,1.06-28.92.84-57.86-.23-86.78A205.23,205.23,0,0,0,385.08,78h0c-3.23,1.21-6.45,2.51-9.69,3.9h0q-4.41,1.89-8.84,4c-1.5.71-3,1.45-4.49,2.2-1.3.65-2.59,1.32-3.89,2,0,0-7.41,1.85-15.71,8.85-16.3,13.77-36.06,47.4-9.88,125.94,0,0,23.25,65.07,11.62,95.29s60.45,65.06,81.34,0c15.37-47.8,23.22-94.34,26.3-115.68C451.7,203.38,451.59,202.21,451.5,201.05Z" transform="translate(-187.32 -35.88)" style="fill:#3f3d56"/></svg>